HIERARCHY
ROOT joint_Root
{
	OFFSET 0.0 0.0 0.0
	CHANNELS 6 Xposition Yposition Zposition Zrotation Xrotation Yrotation 
	JOINT Hips
	{
		OFFSET 4.5925 91.4895 -427.239
		CHANNELS 6 Xposition Yposition Zposition Zrotation Xrotation Yrotation 
		JOINT Spine
		{
			OFFSET 15.7357 0.0 0.0
			CHANNELS 6 Xposition Yposition Zposition Zrotation Xrotation Yrotation 
			JOINT Chest
			{
				OFFSET 8.98455 -0.406207 0.0
				CHANNELS 6 Xposition Yposition Zposition Zrotation Xrotation Yrotation 
				JOINT Neck
				{
					OFFSET 16.3773 0.0 0.0
					CHANNELS 6 Xposition Yposition Zposition Zrotation Xrotation Yrotation 
					JOINT Head
					{
						OFFSET 6.45672 0.0 0.0
						CHANNELS 6 Xposition Yposition Zposition Zrotation Xrotation Yrotation 
						End Site
						{
							OFFSET 0.0 0.0 0.0
						}
					}
				}
				JOINT Shoulder_L
				{
					OFFSET 12.9942 -0.242716 4.98039
					CHANNELS 6 Xposition Yposition Zposition Zrotation Xrotation Yrotation 
					JOINT UpperArm_L
					{
						OFFSET 5.34809 0.0 0.0
						CHANNELS 6 Xposition Yposition Zposition Zrotation Xrotation Yrotation 
						JOINT LowerArm_L
						{
							OFFSET 24.3286 1.87007e-05 0.0
							CHANNELS 6 Xposition Yposition Zposition Zrotation Xrotation Yrotation 
							JOINT Hand_L
							{
								OFFSET 22.2916 0.0 0.0
								CHANNELS 6 Xposition Yposition Zposition Zrotation Xrotation Yrotation 
								End Site
								{
									OFFSET 0.0 0.0 0.0
								}
							}
						}
					}
				}
				JOINT Shoulder_R
				{
					OFFSET 12.9945 -0.242716 -4.98039
					CHANNELS 6 Xposition Yposition Zposition Zrotation Xrotation Yrotation 
					JOINT UpperArm_R
					{
						OFFSET -5.34813 0.0 0.0
						CHANNELS 6 Xposition Yposition Zposition Zrotation Xrotation Yrotation 
						JOINT LowerArm_R
						{
							OFFSET -24.3289 0.000322201 0.0
							CHANNELS 6 Xposition Yposition Zposition Zrotation Xrotation Yrotation 
							JOINT Hand_R
							{
								OFFSET -22.2915 -0.000108084 0.0
								CHANNELS 6 Xposition Yposition Zposition Zrotation Xrotation Yrotation 
								End Site
								{
									OFFSET 0.0 0.0 0.0
								}
							}
						}
					}
				}
			}
		}
		JOINT UpperLeg_L
		{
			OFFSET -2.19248 -6.46944 0.0
			CHANNELS 6 Xposition Yposition Zposition Zrotation Xrotation Yrotation 
			JOINT LowerLeg_L
			{
				OFFSET 39.0811 0.0 -1.23785e-05
				CHANNELS 6 Xposition Yposition Zposition Zrotation Xrotation Yrotation 
				JOINT Foot_L
				{
					OFFSET 40.9854 0.0 -1.26872e-05
					CHANNELS 6 Xposition Yposition Zposition Zrotation Xrotation Yrotation 
					JOINT Toes_L
					{
						OFFSET 11.7543 0.0 0.0
						CHANNELS 6 Xposition Yposition Zposition Zrotation Xrotation Yrotation 
						End Site
						{
							OFFSET 0.0 0.0 0.0
						}
					}
				}
			}
		}
		JOINT UpperLeg_R
		{
			OFFSET -2.19251 6.46944 0.0
			CHANNELS 6 Xposition Yposition Zposition Zrotation Xrotation Yrotation 
			JOINT LowerLeg_R
			{
				OFFSET -39.0811 -0.00228153 -0.0401928
				CHANNELS 6 Xposition Yposition Zposition Zrotation Xrotation Yrotation 
				JOINT Foot_R
				{
					OFFSET -40.9854 0.0 0.0
					CHANNELS 6 Xposition Yposition Zposition Zrotation Xrotation Yrotation 
					JOINT Toes_R
					{
						OFFSET -11.7543 0.0 0.0
						CHANNELS 6 Xposition Yposition Zposition Zrotation Xrotation Yrotation 
						End Site
						{
							OFFSET 0.0 0.0 0.0
						}
					}
				}
			}
		}
	}
}
MOTION
Frames:	6
Frame Time:	0.0333333
0.000000 0.000000 0.000000 0.000000 0.000000 -0.000000 -68.779100 87.270800 185.417000 85.749000 73.789100 5.875970 15.735700 0.000005 -0.000001 95.790200 84.009200 -96.227200 8.984550 -0.406207 -0.000000 4.159950 1.220640 -0.917452 16.377300 -0.000001 -0.000001 -1.950080 -2.199280 0.608981 6.456720 -0.000001 -0.000000 -7.267040 -3.013080 -1.298710 12.994200 -0.242716 4.980390 -91.474200 4.412810 -71.505700 5.348090 -0.000007 -0.000001 -68.128200 23.995300 -1.845170 24.328600 0.000019 0.000005 3.440910 23.764000 -8.487010 22.291600 -0.000001 0.000005 10.378300 5.087700 5.394620 12.994500 -0.242716 -4.980390 88.629700 9.364150 -81.636600 -5.348130 -0.000001 -0.000004 -61.877000 32.128600 -17.886500 -24.328900 0.000322 -0.000009 0.367438 0.644868 -29.924700 -22.291500 -0.000108 -0.000004 16.008100 5.429740 -3.914910 -2.192480 -6.469440 -0.000000 178.044000 -10.642100 -9.572830 39.081100 -0.000007 -0.000012 0.066655 -0.071141 43.133900 40.985400 -0.000006 -0.000013 7.447850 -1.828350 -81.243500 11.754300 -0.000000 0.000003 -1.817240 -2.443260 -16.613700 -2.192510 6.469440 -0.000001 173.891000 4.451770 169.868000 -39.081100 -0.002282 -0.040193 0.105512 -0.037491 69.890600 -40.985400 0.000008 0.000006 1.433380 3.870470 -43.786700 -11.754300 -0.000006 -0.000006 -0.026697 -0.201908 -24.837300
0.000000 0.000000 0.000000 0.000000 0.000000 -0.000000 -65.356400 88.355500 186.053000 81.992400 76.614200 9.215110 15.735700 0.000005 -0.000001 89.429500 84.137900 -89.439200 8.984550 -0.406207 -0.000000 3.957590 -0.116243 -0.015224 16.377300 -0.000001 -0.000001 -1.821780 -2.894940 -0.308327 6.456720 -0.000001 -0.000000 -7.323320 -2.885700 -4.012070 12.994200 -0.242716 4.980390 -91.505100 4.747720 -72.387700 5.348090 -0.000007 -0.000001 -67.589100 27.327000 -6.169070 24.328600 0.000019 0.000005 4.105990 23.244700 -10.309200 22.291600 -0.000001 0.000005 10.999200 5.104610 5.009040 12.994500 -0.242716 -4.980390 88.510200 9.285410 -80.843300 -5.348130 -0.000001 -0.000004 -64.505000 30.404200 -13.567700 -24.328900 0.000322 -0.000009 1.366470 3.387070 -22.039700 -22.291500 -0.000108 -0.000004 14.163800 5.377720 -2.219090 -2.192480 -6.469440 -0.000000 179.298000 -9.267050 -5.951440 39.081100 -0.000007 -0.000012 0.048964 -0.059763 39.326800 40.985400 -0.000006 -0.000013 7.463560 0.340221 -77.886500 11.754300 -0.000000 0.000003 -1.560670 -2.032800 -19.555400 -2.192510 6.469440 -0.000001 176.200000 7.766300 166.514000 -39.081100 -0.002282 -0.040193 0.092237 -0.033653 69.312100 -40.985400 0.000008 0.000006 3.588940 -0.784845 -49.034000 -11.754300 -0.000006 -0.000006 -0.023781 -0.187396 -24.237300
0.000000 0.000000 0.000000 0.000000 0.000000 -0.000000 -62.241700 89.445600 186.624000 76.924100 79.407700 12.999000 15.735700 0.000005 -0.000001 83.644600 84.484000 -83.338500 8.984550 -0.406207 -0.000000 3.202240 -1.232070 0.645974 16.377300 -0.000001 -0.000001 -1.885530 -3.298020 -0.957453 6.456720 -0.000001 -0.000000 -7.028310 -2.961620 -5.441350 12.994200 -0.242716 4.980390 -91.286900 4.238390 -73.094400 5.348090 -0.000007 -0.000001 -66.712800 31.390800 -11.323000 24.328600 0.000019 0.000005 5.009840 21.953200 -13.197100 22.291600 -0.000001 0.000005 11.493700 5.119390 4.665800 12.994500 -0.242716 -4.980390 88.460700 9.082630 -80.339000 -5.348130 -0.000001 -0.000004 -67.215000 27.178200 -8.333000 -24.328900 0.000322 -0.000009 1.704690 6.121080 -15.620000 -22.291500 -0.000108 -0.000004 13.649200 5.333980 -0.901729 -2.192480 -6.469440 -0.000000 -179.538000 -8.262030 -3.671780 39.081100 -0.000007 -0.000012 0.033637 -0.046645 35.795100 40.985400 -0.000006 -0.000013 7.528700 2.899400 -74.766100 11.754300 -0.000000 0.000003 -1.032760 -1.227570 -19.315000 -2.192510 6.469440 -0.000001 179.029000 10.399700 162.380000 -39.081100 -0.002282 -0.040193 0.067397 -0.028877 65.794600 -40.985400 0.000008 0.000006 5.795170 -4.435220 -54.028500 -11.754300 -0.000006 -0.000006 -0.021331 -0.174555 -23.707300
0.000000 0.000000 0.000000 0.000000 0.000000 -0.000000 -59.261300 90.327600 187.160000 70.252200 81.929600 18.195800 15.735700 0.000005 -0.000001 78.724900 84.820400 -78.164600 8.984550 -0.406207 -0.000000 2.404880 -2.050040 1.162630 16.377300 -0.000001 -0.000001 -2.116860 -3.579270 -1.299450 6.456720 -0.000001 -0.000000 -6.847110 -2.985740 -5.961520 12.994200 -0.242716 4.980390 -91.042400 3.589030 -73.793200 5.348090 -0.000007 -0.000001 -65.430800 34.117000 -16.524800 24.328600 0.000019 0.000005 6.202950 20.122000 -17.536300 22.291600 -0.000001 0.000005 11.345500 5.149760 3.949590 12.994500 -0.242716 -4.980390 88.451500 8.698760 -79.865600 -5.348130 -0.000001 -0.000004 -69.247000 22.938000 -2.915540 -24.328900 0.000322 -0.000009 1.532210 7.924520 -10.989200 -22.291500 -0.000108 -0.000004 13.553200 5.296660 0.165051 -2.192480 -6.469440 -0.000000 -178.513000 -7.627050 -2.107430 39.081100 -0.000007 -0.000012 0.023692 -0.036744 32.812400 40.985400 -0.000006 -0.000013 7.665530 5.472300 -71.500700 11.754300 -0.000000 0.000003 -0.014653 -0.135629 -22.110000 -2.192510 6.469440 -0.000001 -178.225000 11.832100 158.427000 -39.081100 -0.002282 -0.040193 0.045024 -0.024529 59.607700 -40.985400 0.000008 0.000006 7.052430 -5.779820 -57.841100 -11.754300 -0.000006 -0.000006 -0.023035 -0.183555 -24.078700
0.000000 0.000000 0.000000 0.000000 0.000000 -0.000000 -56.186300 90.775100 187.792000 58.855000 84.366900 28.399900 15.735700 0.000005 -0.000001 73.367800 84.926000 -72.608200 8.984550 -0.406207 -0.000000 1.979980 -2.941120 1.568880 16.377300 -0.000001 -0.000001 -2.602930 -3.714910 -1.244670 6.456720 -0.000001 -0.000000 -7.034580 -2.695060 -5.930250 12.994200 -0.242716 4.980390 -90.880400 3.135750 -74.309600 5.348090 -0.000007 -0.000001 -63.174600 36.183500 -21.803700 24.328600 0.000019 0.000005 7.447240 17.703900 -23.264800 22.291600 -0.000001 0.000005 11.465400 5.178840 3.245160 12.994500 -0.242716 -4.980390 88.444400 8.350850 -79.408800 -5.348130 -0.000001 -0.000004 -70.250300 19.110900 2.116450 -24.328900 0.000322 -0.000009 1.129180 7.998630 -8.069790 -22.291500 -0.000108 -0.000004 13.099800 5.269430 0.914788 -2.192480 -6.469440 -0.000000 -177.475000 -6.623040 -0.768651 39.081100 -0.000007 -0.000012 0.019740 -0.032967 30.911000 40.985400 -0.000006 -0.000013 7.593530 7.595210 -68.976000 11.754300 -0.000000 0.000003 -0.030701 -0.220670 -25.618900 -2.192510 6.469440 -0.000001 -176.060000 12.887700 155.372000 -39.081100 -0.002282 -0.040193 0.039079 -0.028422 51.583000 -40.985400 0.000008 0.000006 6.622270 -4.047280 -60.444400 -11.754300 -0.000006 -0.000006 -0.021748 -0.176786 -23.799300
0.000000 0.000000 0.000000 0.000000 0.000000 -0.000000 -52.966100 90.783900 188.424000 37.676100 86.368100 48.518400 15.735700 0.000005 -0.000001 68.074400 84.894000 -67.154000 8.984550 -0.406207 -0.000000 1.742990 -3.859310 1.898440 16.377300 -0.000001 -0.000001 -3.178580 -3.759770 -1.017080 6.456720 -0.000001 -0.000000 -7.450880 -2.189900 -5.443820 12.994200 -0.242716 4.980390 -90.779900 2.880590 -74.843500 5.348090 -0.000007 -0.000001 -60.612100 37.161300 -26.502300 24.328600 0.000019 0.000005 8.895490 15.650600 -30.123000 22.291600 -0.000001 0.000005 11.830700 5.209290 2.486500 12.994500 -0.242716 -4.980390 88.454400 7.927080 -78.930200 -5.348130 -0.000001 -0.000004 -70.554000 16.388500 6.589210 -24.328900 0.000322 -0.000009 0.906242 7.993430 -6.496500 -22.291500 -0.000108 -0.000004 12.398600 5.249740 1.440640 -2.192480 -6.469440 -0.000000 -176.629000 -5.420460 0.311261 39.081100 -0.000007 -0.000012 0.018183 -0.031487 30.004100 40.985400 -0.000006 -0.000013 7.476350 9.219600 -67.177300 11.754300 -0.000000 0.000003 -0.050637 -0.300038 -28.937000 -2.192510 6.469440 -0.000001 -174.459000 14.250000 152.771000 -39.081100 -0.002282 -0.040193 0.033127 -0.032376 42.681700 -40.985400 0.000008 0.000006 5.778360 0.277730 -60.934700 -11.754300 -0.000006 -0.000006 -0.023722 -0.187096 -24.224900
